<svg version="1.1" xmlns="http://www.w3.org/2000/svg" xmlns:xlink="http://www.w3.org/1999/xlink" width="49.7201" height="79.9422" viewBox="0,0,49.7201,79.9422"><g transform="translate(-135.58158,-142.06946)"><g data-paper-data="{&quot;isPaintingLayer&quot;:true}" fill-rule="nonzero" stroke="none" stroke-width="0.9749" stroke-linecap="butt" stroke-linejoin="miter" stroke-miterlimit="10" stroke-dasharray="" stroke-dashoffset="0" style="mix-blend-mode: normal"><path d="M143.38079,144.99427c3.3098,0.2642 7.9036,-0.7546 9.7491,0.9749c-0.2506,12.6669 0.2242,22.6382 0.9749,32.1718c10.2287,-5.6944 9.9128,-21.9344 16.5734,-31.1969c4.3441,-0.12 6.0444,2.4051 9.749,2.9247c-2.9374,10.3866 -9.014,17.6331 -11.6989,28.2722c4.8989,7.7749 7.695,17.6526 12.6738,25.3475c-2.1701,2.3798 -4.4114,4.6874 -8.7741,4.8746c-3.304,-6.7707 -4.5294,-15.619 -10.724,-19.4981c-7.7953,4.2408 -6.061,13.558 -6.8243,23.3977c-3.4317,-0.2369 -6.723,2.0327 -9.7491,0.9749c-0.7955,-22.2834 -0.4621,-44.4995 -1.9498,-68.2433z" fill="#ff9400"/><path d="M185.30169,203.48847c0,3.575 0,7.149 0,10.724c-7.0476,0.1024 -9.1875,5.1114 -14.6235,6.8243c-3.2075,-7.1909 -6.6528,-14.1458 -7.7993,-23.3977c-7.1373,2.3895 -3.8353,10.6323 -3.8996,17.5483c-2.4031,-0.1287 -4.6971,-0.1472 -5.8494,0.9749c-0.0215,2.2959 1.6797,2.8701 0.9749,5.8494c-5.1992,0 -10.3993,0 -15.5985,0c-3.1655,-23.3382 0.6093,-50.7048 -2.9247,-73.1178c0,-0.3247 0,-0.6503 0,-0.9749c1.281,-1.2508 3.5935,-1.2508 4.8745,0c1.0929,-3.071 0.0877,-2.2072 0,-5.8495c5.1992,0 10.3993,0 15.5985,0c0.6346,5.2148 -1.2801,12.9789 0.9749,16.5734c3.3264,-3.1723 3.1343,-9.8641 5.8494,-13.6486c5.2128,3.2074 4.4865,-0.1882 8.7742,-1.9499c3.999,2.1751 9.9762,2.372 12.6737,5.8495c-1.2557,10.5806 -12.3442,18.9638 -11.6988,29.2471c0.5742,9.1476 9.5492,16.5929 12.6737,25.3475zM145.33059,213.23757c3.0261,1.0578 6.3174,-1.2118 9.7491,-0.9749c0.7633,-9.8397 -0.971,-19.1569 6.8243,-23.3977c6.1946,3.8791 7.42,12.7274 10.724,19.4981c4.3627,-0.1872 6.604,-2.4948 8.7741,-4.8746c-4.9788,-7.6949 -7.7749,-17.5726 -12.6738,-25.3475c2.6849,-10.6391 8.7615,-17.8856 11.6989,-28.2722c-3.7046,-0.5196 -5.4049,-3.0447 -9.749,-2.9247c-6.6606,9.2625 -6.3447,25.5025 -16.5734,31.1969c-0.7507,-9.5336 -1.2255,-19.5049 -0.9749,-32.1718c-1.8455,-1.7295 -6.4393,-0.7107 -9.7491,-0.9749c1.4877,23.7438 1.1543,45.9599 1.9498,68.2433z" fill="#000000"/></g></g></svg>