<svg version="1.1" xmlns="http://www.w3.org/2000/svg" xmlns:xlink="http://www.w3.org/1999/xlink" width="116.94085" height="37.94719" viewBox="0,0,116.94085,37.94719"><g transform="translate(-181.52958,-161.02641)"><g data-paper-data="{&quot;isPaintingLayer&quot;:true}" stroke="none" stroke-width="1" stroke-linecap="butt" stroke-linejoin="miter" stroke-miterlimit="10" stroke-dasharray="" stroke-dashoffset="0" style="mix-blend-mode: normal"><g><g><path d="M200.31009,169.62584c1.40726,-3.14714 4.40088,-5.34759 7.88065,-5.34759c4.81027,0 8.69942,4.17061 8.69942,9.28791c0,10.10668 -10.23461,13.22824 -16.58007,23.48844c-6.72926,-10.31137 -16.58007,-13.04913 -16.58007,-23.48844c0,-5.11731 3.88915,-9.28791 8.69942,-9.28791c3.47977,0 6.47339,2.20044 7.88065,5.34759z" fill="#ffd499" fill-rule="evenodd"/><path d="M200.31009,198.97359c-0.63966,0 -1.25374,-0.33262 -1.61195,-0.86994c-2.45631,-3.76122 -4.81027,-6.44781 -7.57361,-9.03205c-4.52882,-4.24736 -9.3135,-8.23886 -9.3135,-15.50544c0,-6.19194 4.7591,-11.2069 10.61841,-11.2069c3.0448,0 5.8849,1.38167 7.88065,3.71005c1.99575,-2.30279 4.83586,-3.71005 7.88065,-3.71005c5.85932,0 10.61841,5.04055 10.61841,11.2069c0,6.95954 -4.24736,10.97662 -8.75059,15.22399c-2.84011,2.68659 -5.75697,5.44993 -8.11093,9.26233c-0.35821,0.5629 -0.97229,0.89553 -1.63754,0.92112zM192.42944,166.19724c-3.73563,0 -6.78043,3.30066 -6.78043,7.36892c0,5.60345 3.17273,8.57149 7.5992,12.69092c2.25162,2.0981 4.73351,4.42647 7.0363,7.4201c2.2772,-3.07038 4.83586,-5.5011 7.13864,-7.67596c4.22178,-3.9915 7.54803,-7.13864 7.54803,-12.43506c0,-4.06826 -3.0448,-7.36892 -6.78043,-7.36892c-2.58424,0 -4.98937,1.66312 -6.11518,4.22178c-0.30704,0.69084 -0.99787,1.15139 -1.76547,1.15139c-0.7676,0 -1.45843,-0.46056 -1.76547,-1.15139c-1.12581,-2.55865 -3.53094,-4.22178 -6.11518,-4.22178z" fill="#ff66e0" fill-rule="nonzero"/></g><path d="M216.55754,173.28471c0,6.57574 -4.01709,10.38813 -8.26445,14.40522c-2.661,2.50748 -5.39876,5.11731 -7.62479,8.69942c-0.35821,0.53732 -0.9467,0.89553 -1.61195,0.89553h-0.02559c-0.63966,0 -1.25374,-0.33262 -1.61195,-0.86994c-2.2772,-3.53094 -4.96379,-6.03842 -7.57361,-8.46914c-4.27295,-3.9915 -8.31562,-7.77831 -8.31562,-14.66108c0,-5.8849 4.52882,-10.66958 10.10668,-10.66958c2.86569,0 5.52669,1.27933 7.4201,3.4286c1.8934,-2.14927 4.57999,-3.4286 7.4201,-3.4286c5.57786,0 10.10668,4.78468 10.08109,10.66958z" fill="#ff66e0" fill-rule="evenodd"/></g><g><g><path d="M240.97399,168.293c1.40726,-3.14714 4.40088,-5.34758 7.88065,-5.34758c4.81027,0 8.69942,4.1706 8.69942,9.28791c0,10.10668 -10.23461,13.22824 -16.58007,23.48844c-6.72926,-10.31137 -16.58007,-13.04914 -16.58007,-23.48844c0,-5.1173 3.88915,-9.28791 8.69942,-9.28791c3.47977,0 6.47339,2.20044 7.88065,5.34758z" fill="#ffd499" fill-rule="evenodd"/><path d="M240.97399,197.64075c-0.63967,0 -1.25374,-0.33263 -1.61195,-0.86995c-2.4563,-3.76122 -4.81027,-6.44781 -7.57361,-9.03205c-4.52882,-4.24737 -9.3135,-8.23887 -9.3135,-15.50544c0,-6.19194 4.7591,-11.2069 10.61841,-11.2069c3.0448,0 5.88491,1.38167 7.88065,3.71005c1.99575,-2.30279 4.83585,-3.71005 7.88065,-3.71005c5.85932,0 10.61841,5.04054 10.61841,11.2069c0,6.95953 -4.24737,10.97663 -8.7506,15.22399c-2.8401,2.68659 -5.75697,5.44993 -8.11093,9.26232c-0.35821,0.56291 -0.97229,0.89553 -1.63754,0.92112zM233.09334,164.8644c-3.73564,0 -6.78043,3.30066 -6.78043,7.36892c0,5.60345 3.17273,8.57149 7.5992,12.69092c2.25161,2.0981 4.73351,4.42647 7.03629,7.4201c2.2772,-3.07038 4.83586,-5.5011 7.13864,-7.67596c4.22178,-3.9915 7.54803,-7.13864 7.54803,-12.43506c0,-4.06826 -3.0448,-7.36892 -6.78044,-7.36892c-2.58424,0 -4.98937,1.66312 -6.11518,4.22178c-0.30704,0.69083 -0.99787,1.1514 -1.76547,1.1514c-0.76759,0 -1.45843,-0.46056 -1.76547,-1.1514c-1.12581,-2.55865 -3.53095,-4.22178 -6.11518,-4.22178z" fill="#ff66e0" fill-rule="nonzero"/></g><path d="M257.22146,171.95187c0,6.57574 -4.01709,10.38813 -8.26446,14.40521c-2.661,2.50748 -5.39875,5.11731 -7.62478,8.69943c-0.35821,0.53732 -0.9467,0.89552 -1.61195,0.89552h-0.02559c-0.63967,0 -1.25374,-0.33262 -1.61195,-0.86994c-2.2772,-3.53094 -4.96379,-6.03843 -7.57361,-8.46915c-4.27295,-3.9915 -8.31563,-7.7783 -8.31563,-14.66108c0,-5.88491 4.52882,-10.66958 10.10668,-10.66958c2.86569,0 5.52669,1.27933 7.4201,3.4286c1.89341,-2.14927 4.57999,-3.4286 7.4201,-3.4286c5.57787,0 10.10668,4.78468 10.0811,10.66958z" fill="#ff66e0" fill-rule="evenodd"/></g><g fill="#fb00ff"><g><path d="M279.97137,168.29339c1.40726,-3.14714 4.40088,-5.34758 7.88065,-5.34758c4.81027,0 8.69942,4.1706 8.69942,9.28791c0,10.10668 -10.23461,13.22824 -16.58007,23.48844c-6.72926,-10.31137 -16.58007,-13.04914 -16.58007,-23.48844c0,-5.1173 3.88915,-9.28791 8.69942,-9.28791c3.47977,0 6.47339,2.20044 7.88065,5.34758z" fill-rule="evenodd"/><path d="M279.97137,197.64114c-0.63967,0 -1.25374,-0.33263 -1.61195,-0.86995c-2.4563,-3.76122 -4.81027,-6.44781 -7.57361,-9.03205c-4.52882,-4.24737 -9.3135,-8.23887 -9.3135,-15.50544c0,-6.19194 4.7591,-11.2069 10.61841,-11.2069c3.0448,0 5.88491,1.38167 7.88065,3.71005c1.99575,-2.30279 4.83585,-3.71005 7.88065,-3.71005c5.85932,0 10.61841,5.04054 10.61841,11.2069c0,6.95953 -4.24737,10.97663 -8.7506,15.22399c-2.8401,2.68659 -5.75697,5.44993 -8.11093,9.26232c-0.35821,0.56291 -0.97229,0.89553 -1.63754,0.92112zM272.0907,164.86479c-3.73564,0 -6.78043,3.30066 -6.78043,7.36892c0,5.60345 3.17273,8.57149 7.5992,12.69092c2.25161,2.0981 4.73351,4.42647 7.03629,7.4201c2.2772,-3.07038 4.83586,-5.5011 7.13864,-7.67596c4.22178,-3.9915 7.54803,-7.13864 7.54803,-12.43506c0,-4.06826 -3.0448,-7.36892 -6.78044,-7.36892c-2.58424,0 -4.98937,1.66312 -6.11518,4.22178c-0.30704,0.69083 -0.99787,1.1514 -1.76547,1.1514c-0.76759,0 -1.45843,-0.46056 -1.76547,-1.1514c-1.12581,-2.55865 -3.53095,-4.22178 -6.11518,-4.22178z" fill-rule="nonzero"/></g><path d="M296.21881,171.95226c0,6.57574 -4.01709,10.38813 -8.26446,14.40521c-2.661,2.50748 -5.39875,5.11731 -7.62478,8.69943c-0.35821,0.53732 -0.9467,0.89552 -1.61195,0.89552h-0.02559c-0.63967,0 -1.25374,-0.33262 -1.61195,-0.86994c-2.2772,-3.53094 -4.96379,-6.03843 -7.57361,-8.46915c-4.27295,-3.9915 -8.31563,-7.7783 -8.31563,-14.66108c0,-5.88491 4.52882,-10.66958 10.10668,-10.66958c2.86569,0 5.52669,1.27933 7.4201,3.4286c1.89341,-2.14927 4.57999,-3.4286 7.4201,-3.4286c5.57787,0 10.10668,4.78468 10.0811,10.66958z" fill-rule="evenodd"/></g></g></g></svg>