<svg version="1.1" xmlns="http://www.w3.org/2000/svg" xmlns:xlink="http://www.w3.org/1999/xlink" width="808.45834" height="618.08698" viewBox="0,0,808.45834,618.08698"><g transform="translate(145.79535,89.75)"><g data-paper-data="{&quot;isPaintingLayer&quot;:true}" fill-rule="nonzero" stroke="none" stroke-width="0" stroke-linecap="butt" stroke-linejoin="miter" stroke-miterlimit="10" stroke-dasharray="" stroke-dashoffset="0" style="mix-blend-mode: normal"><path d="M-145.79535,449.75v-539.5h771.5907v539.5z" fill="#8cf5ff"/><path d="M-118.66299,432.39551l193.4151,-512.73248l44.91087,16.94147l-193.4151,512.73248z" fill="#c0faff"/><path d="M-40.66299,447.39551l193.4151,-512.73248l44.91087,16.94147l-193.4151,512.73248z" fill="#c0faff"/><path d="M26.33701,458.39551l193.4151,-512.73248l44.91087,16.94147l-193.4151,512.73248z" fill="#c0faff"/><path d="M92.33701,465.39551l193.4151,-512.73248l44.91087,16.94147l-193.4151,512.73248z" fill="#c0faff"/><path d="M156.33701,474.39551l193.4151,-512.73248l44.91087,16.94147l-193.4151,512.73248z" fill="#c0faff"/><path d="M225.33701,474.39551l193.4151,-512.73248l44.91087,16.94147l-193.4151,512.73248z" fill="#c0faff"/><path d="M288.33701,486.39551l193.4151,-512.73248l44.91087,16.94147l-193.4151,512.73248z" fill="#c0faff"/><path d="M356.33701,497.39551l193.4151,-512.73248l44.91087,16.94147l-193.4151,512.73248z" fill="#c0faff"/><path d="M424.33701,511.39551l193.4151,-512.73248l44.91087,16.94147l-193.4151,512.73248z" fill="#c0faff"/></g></g></svg>