<svg version="1.1" xmlns="http://www.w3.org/2000/svg" xmlns:xlink="http://www.w3.org/1999/xlink" width="510.45338" height="433.43765" viewBox="0,0,510.45338,433.43765"><g transform="translate(26.38357,5.4844)"><g data-paper-data="{&quot;isPaintingLayer&quot;:true}" fill-rule="nonzero" stroke-linecap="butt" stroke-linejoin="miter" stroke-miterlimit="10" stroke-dasharray="" stroke-dashoffset="0" style="mix-blend-mode: normal"><path d="M-25.33182,361.00001v-117.47479c0.41532,-0.02087 0.83058,-0.04242 1.24577,-0.06419c6.39569,-3.19784 14.88931,-0.55299 21.72284,0.19259c0.6534,0.07129 6.11017,-0.52866 7.53169,0.14114c1.9965,0.94073 3.73799,2.45773 5.84808,3.10464c6.3318,1.94119 13.74914,-0.58315 20.23834,0.84198c0,0 6.32345,1.26469 9.83001,-3.31507c1.62849,0.00667 3.2671,0.0034 4.05107,0.0034c5.60938,0 11.21876,0 16.82813,0c15.65951,0 31.31903,0 46.97854,0c7.30373,0 14.60745,0 21.91118,0c0.39879,0.28871 1.6179,1.0267 2.48996,0c1.59782,0 3.19564,0 4.79346,0c2.0074,1.98924 3.74593,5.15357 3.74593,5.15357c0,0 17.74617,-7.12194 22.16132,-4.19708c9.1464,6.05914 9.5488,22.92342 16.18334,9.05368c2.76864,-5.78794 4.09354,-8.67154 5.03013,-10.01017c0.73866,0 1.47731,0 2.21597,0c10.4057,0 21.27049,-0.90358 31.63255,-0.01932c3.75504,0.32044 7.45999,1.12905 11.21876,1.40234c15.90354,1.15632 32.39257,0.01932 48.30109,0.01932c25.2422,0 50.4844,0 75.7266,0c28.98179,0 57.96357,0 86.94536,0c14.08127,0 28.30043,-0.51615 42.36989,-0.03294v115.20089z" data-paper-data="{&quot;index&quot;:null}" fill="#9083ff" stroke="none" stroke-width="0"/><path d="M132.57824,244.42971c-0.11944,0.23626 -0.91668,0.10894 -1.42679,0c0.4756,0 0.95119,0 1.42679,0z" data-paper-data="{&quot;index&quot;:null}" fill="#564dff" stroke="none" stroke-width="0"/><path d="M432.10336,123.67793l-1.38334,24.9617l-115.2342,-6.35655l1.38334,-24.9617z" data-paper-data="{&quot;index&quot;:null}" fill="#9083ff" stroke="none" stroke-width="0"/><path d="M283.40506,109.92491l-24.99999,0.02168l-0.12958,-115.40931l24.99999,-0.02168z" data-paper-data="{&quot;index&quot;:null}" fill="#9083ff" stroke="none" stroke-width="0"/><path d="M86.78702,47.58137l96.98663,1.61037l-0.59629,35.91218l-96.98663,-1.61037z" data-paper-data="{&quot;index&quot;:null}" fill="#9083ff" stroke="none" stroke-width="0"/><path d="M190.94953,77.44936v-6.35973h0.79497v6.35973z" fill="#bdb700" stroke="#000000" stroke-width="0.5"/><path d="M201.2423,246.00484c-0.94002,0.17144 -1.88898,0.28785 -2.84423,0.35613c2.44706,0.67974 4.89411,1.35948 7.34117,2.03921l4.08747,1.13541c0.49786,0.12624 0.93615,0.40187 1.26438,0.77638c2.30348,0.60255 4.61147,1.19484 6.92468,1.78242l3.67887,0.93447c1.10887,0.25589 1.93558,1.24941 1.93558,2.43602c0,1.38071 -1.11929,2.5 -2.5,2.5c-0.22872,0 -0.45026,-0.03071 -0.66073,-0.08824l-4.79632,-1.19908c-1.66475,-0.07988 -3.23381,-0.80843 -4.85071,-1.21268c-2.17466,-0.54369 -4.34294,-1.10645 -6.50826,-1.67992l-0.40721,-0.05817c-2.26805,0.09679 -4.68351,-0.23266 -7.13001,-0.75863c-0.28449,1.06801 -1.25833,1.85481 -2.41595,1.85481c-0.20678,0 -0.4077,-0.0251 -0.59987,-0.07243l-1.71517,-0.38465c0.02072,0.12956 0.03148,0.26243 0.03148,0.39783c0,1.38071 -1.11929,2.5 -2.5,2.5c-0.09542,0 -0.18959,-0.00535 -0.28222,-0.01575l-4.94172,-0.49417l0.04061,-0.40607l-0.16892,-0.03672c-0.05954,0.00112 -0.11906,0.00213 -0.17855,0.00305c-0.05103,0.78832 -0.18379,1.54644 -0.57356,2.21106c-0.14318,0.24414 -0.32935,0.52603 -0.5522,0.83152c1.47417,3.52147 0.75692,7.49408 -5.22953,6.23044c-0.19129,-0.04038 -0.77139,-0.51696 -1.54117,-1.2162c-0.60723,0.08785 -1.21038,0.05242 -1.79222,-0.1449c-2.23668,-0.75854 -3.55105,-1.48879 -4.22242,-2.27828c-2.83923,-0.73837 -6.25284,-1.7714 -6.70645,-2.71851c-0.40258,-0.84056 -0.305,-1.76079 0.08668,-2.69203c-0.99752,-0.83807 -1.66173,-1.51115 -1.65059,-1.77091c0.03055,-0.71222 0.37319,-1.26289 0.89548,-1.7168c-18.69733,-1.54506 -37.78242,-0.34596 -56.43274,-0.92781c-5.00652,-0.15645 -10.16422,-0.00773 -15.14978,-0.47839c-13.17592,-1.24385 -26.35341,-4.12903 -39.35218,-7.21353c3.37938,0 6.75876,0 10.13813,0c4.56335,0 9.12671,0 13.69006,0c5.32401,0.95369 10.65973,1.73213 15.99436,2.2357c4.8812,0.46077 9.93409,0.30548 14.83558,0.45865c11.80804,0.36962 23.77266,0.04691 35.70512,0.1395c-1.46131,-0.32437 -2.92247,-0.6494 -4.38327,-0.976c-1.25962,0.00141 -2.45694,-0.08247 -3.49433,-0.3095c-0.96642,-0.2115 -1.94864,-0.53903 -2.93492,-0.93457c-1.01577,-0.17011 -2.0259,-0.3574 -3.01314,-0.61379c19.70345,0 39.40691,0 59.11036,0c6.73518,0 13.6627,-0.37855 20.52173,-0.40583c-2.24422,0.7851 -4.47656,1.5657 -6.7534,1.98095z" fill="#564dff" stroke="none" stroke-width="0.5"/><path d="M284.01514,245.99833c-4.21853,1.28023 -9.37799,0.75142 -13.71106,0.7478c-1.38837,-0.00116 -2.81128,-0.03549 -4.24961,-0.11001c-0.38912,0.87504 -1.26603,1.48519 -2.28545,1.48519c-0.18979,0 -0.37464,-0.02115 -0.55233,-0.06122l-4.84738,-0.99202c-0.60307,-0.12342 -1.20538,-0.24942 -1.80699,-0.37786c-0.16612,1.21961 -1.2118,2.15944 -2.477,2.15944c-0.2969,0 -0.58171,-0.05176 -0.8459,-0.14674l-3.61673,-1.20553c-0.50221,-0.16757 -1.00536,-0.33264 -1.50938,-0.49537c-1.01638,-0.07465 -2.00051,-0.33031 -2.96956,-0.6733c11.18121,0.04811 22.47097,-0.49665 33.4826,-0.49665c2.0051,0 4.0102,0 6.0153,0c-0.21801,0.05189 -0.42852,0.10618 -0.62651,0.16627z" fill="#564dff" stroke="none" stroke-width="0.5"/><path d="M215.8173,245.32614c-1.45388,0.12196 -2.96159,0.30589 -4.37669,-0.04924c-0.90582,-0.22732 -1.69758,-0.76026 -2.50488,-1.25449c3.42112,0.00317 6.8222,0.10222 10.17078,0.38798c0.56979,0.04862 1.13843,0.10849 1.70628,0.17602c-1.68195,0.34103 -3.35168,0.60185 -4.99549,0.73974z" fill="#564dff" stroke="none" stroke-width="0.5"/><path d="" fill="#564dff" stroke="none" stroke-width="0.5"/><path d="M-26.38357,294.73052v-52.58792h510.45338v52.58792z" fill="#9083ff" stroke="none" stroke-width="0"/><path d="M399.92914,427.95325v-2.10352h5.60938v2.10352z" fill="#564dff" stroke="none" stroke-width="0"/></g></g></svg>