<svg version="1.1" xmlns="http://www.w3.org/2000/svg" xmlns:xlink="http://www.w3.org/1999/xlink" width="509.00001" height="359.4957" viewBox="0,0,509.00001,359.4957"><g transform="translate(14.88324,1.97854)"><g data-paper-data="{&quot;isPaintingLayer&quot;:true}" fill-rule="nonzero" stroke-linecap="butt" stroke-linejoin="miter" stroke-miterlimit="10" stroke-dasharray="" stroke-dashoffset="0" style="mix-blend-mode: normal"><path d="M267.27808,113.43077l-24.99999,0.02168l-0.12958,-115.40931l24.99999,-0.02168z" data-paper-data="{&quot;index&quot;:null}" fill="#9083ff" stroke="none" stroke-width="0"/><path d="M-14.88324,357.51716c0,0 0,-87.57731 0,-108.98446c0,-8.94192 6.96274,-19.01554 18.29398,-19.01554c27.15585,0 79.40182,0 121.02934,0c1.01361,0 -6.29388,41.47052 3.06273,58.82549c9.65073,17.90053 76.81964,14.41316 88.6623,-2.01085c13.20841,-18.31811 0.85153,-55.9783 3.19053,-55.98166c116.54336,-0.16718 274.76114,-0.83299 274.76114,-0.83299v128z" data-paper-data="{&quot;index&quot;:null}" fill="#9083ff" stroke="none" stroke-width="0"/><path d="M338.52392,183.71919v-25.73288h148v25.73288z" data-paper-data="{&quot;index&quot;:null}" fill="#9083ff" stroke="none" stroke-width="0"/><path d="M190.94953,77.44936v-6.35973h0.79497v6.35973z" fill="#bdb700" stroke="#000000" stroke-width="0.5"/></g></g></svg>