<svg version="1.1" xmlns="http://www.w3.org/2000/svg" xmlns:xlink="http://www.w3.org/1999/xlink" width="42.14488" height="42.52428" viewBox="0,0,42.14488,42.52428"><g transform="translate(-218.92756,-158.81006)"><g data-paper-data="{&quot;isPaintingLayer&quot;:true}" fill-rule="nonzero" stroke="#000000" stroke-width="1" stroke-linecap="butt" stroke-linejoin="miter" stroke-miterlimit="10" stroke-dasharray="" stroke-dashoffset="0" style="mix-blend-mode: normal"><path d="M224.36983,190.19966c0,0 -3.58911,-12.76554 -4.74547,-16.8784c-0.66615,-2.36932 0.41919,-6.16199 2.34461,-6.70333c3.92,-1.10213 18.38624,-5.16941 25.99221,-7.30787c2.85592,-0.80296 5.65332,1.89806 6.31946,4.26737c1.15635,4.11285 4.74547,16.8784 4.74547,16.8784z" fill="#ff0000"/><path d="M224.57244,200.83434v-10.19048h36v10.19048z" fill="#ff0000"/><path d="M253.88459,171.40538c0.7047,2.50645 -0.72511,5.10095 -3.19358,5.79497c-2.46847,0.69403 -5.04084,-0.77523 -5.74554,-3.28168c-0.7047,-2.50645 0.72511,-5.10095 3.19358,-5.79497c2.46847,-0.69403 5.04084,0.77523 5.74554,3.28168z" fill="#ffffff"/><path d="M249.95436,172.73298c-0.18151,-0.6456 0.1947,-1.31611 0.8403,-1.49763c0.6456,-0.18151 1.31611,0.1947 1.49763,0.8403c0.18151,0.6456 -0.1947,1.31611 -0.8403,1.49763c-0.6456,0.18151 -1.31611,-0.1947 -1.49763,-0.8403z" fill="#000000"/></g></g></svg>