<svg version="1.1" xmlns="http://www.w3.org/2000/svg" xmlns:xlink="http://www.w3.org/1999/xlink" width="45.05358" height="46.58215" viewBox="0,0,45.05358,46.58215"><g transform="translate(-216.01885,-154.75219)"><g data-paper-data="{&quot;isPaintingLayer&quot;:true}" fill-rule="nonzero" stroke="#000000" stroke-width="1" stroke-linecap="butt" stroke-linejoin="miter" stroke-miterlimit="10" stroke-dasharray="" stroke-dashoffset="0" style="mix-blend-mode: normal"><path d="M224.63373,190.07803c0,0 -5.7053,-11.97039 -7.54346,-15.82707c-1.05892,-2.22174 -0.63357,-6.14365 1.17192,-7.00417c3.67583,-1.75196 17.24099,-8.21736 24.37319,-11.61668c2.67803,-1.2764 5.89357,0.91021 6.95248,3.13194c1.83815,3.85667 7.54346,15.82707 7.54346,15.82707z" fill="#ff0000"/><path d="M224.57244,200.83434v-10.19048h36v10.19048z" fill="#ff0000"/><path d="M250.52721,166.54351c1.1202,2.35033 0.15187,5.14999 -2.16284,6.25322c-2.31471,1.10324 -5.09927,0.09227 -6.21947,-2.25806c-1.1202,-2.35033 -0.15187,-5.14999 2.16284,-6.25322c2.31471,-1.10324 5.09927,-0.09227 6.21947,2.25806z" fill="#ffffff"/><path d="M246.8796,168.51941c-0.28853,-0.60539 -0.03168,-1.33006 0.5737,-1.6186c0.60539,-0.28853 1.33006,-0.03168 1.6186,0.5737c0.28853,0.60539 0.03168,1.33006 -0.5737,1.6186c-0.60539,0.28853 -1.33006,0.03168 -1.6186,-0.5737z" fill="#000000"/></g></g></svg>