<svg version="1.1" xmlns="http://www.w3.org/2000/svg" xmlns:xlink="http://www.w3.org/1999/xlink" width="41.88094" height="11.45544" viewBox="0,0,41.88094,11.45544"><g transform="translate(-219.43453,-173.77228)"><g data-paper-data="{&quot;isPaintingLayer&quot;:true}" fill-rule="nonzero" stroke="#000000" stroke-width="1" stroke-linecap="butt" stroke-linejoin="miter" stroke-miterlimit="10" stroke-dasharray="" stroke-dashoffset="0" style="mix-blend-mode: normal"><path d="M219.93453,180.79562c0,0 0,-3.7044 0,-4.8979c0,-0.68755 2.35064,-1.62544 4.62039,-1.62544c4.62102,0 21.67429,0 30.64045,0c3.36665,0 5.5931,0.9379 5.5931,1.62544c0,1.1935 0,4.8979 0,4.8979z" fill="#ff0000"/><path d="M219.96154,184.72772v-2.84677h40.85393v2.84677z" fill="#ff0000"/><path d="M257.95138,178.84794c0,0.72734 -2.35895,1.31696 -5.26886,1.31696c-2.90991,0 -5.26886,-0.58963 -5.26886,-1.31696c0,-0.72734 2.35895,-1.31696 5.26886,-1.31696c2.90991,0 5.26886,0.58963 5.26886,1.31696z" fill="#ffffff"/><path d="M253.24994,178.9078c0,-0.18734 0.61695,-0.33922 1.37801,-0.33922c0.76105,0 1.37801,0.15187 1.37801,0.33922c0,0.18734 -0.61695,0.33922 -1.37801,0.33922c-0.76105,0 -1.37801,-0.15187 -1.37801,-0.33922z" fill="#000000"/></g></g></svg>