<svg version="1.1" xmlns="http://www.w3.org/2000/svg" xmlns:xlink="http://www.w3.org/1999/xlink" width="37.02381" height="35.29472" viewBox="0,0,37.02381,35.29472"><g transform="translate(-221.4881,-162.35264)"><g data-paper-data="{&quot;isPaintingLayer&quot;:true}" fill-rule="nonzero" stroke="#000000" stroke-width="1" stroke-linecap="butt" stroke-linejoin="miter" stroke-miterlimit="10" stroke-dasharray="" stroke-dashoffset="0" style="mix-blend-mode: normal"><path d="M221.9881,186.20399c0,0 0,-13.2605 0,-17.53282c0,-2.46119 2.07136,-5.81853 4.07143,-5.81853c4.07199,0 19.09913,0 27,0c2.96665,0 4.92857,3.35735 4.92857,5.81853c0,4.27232 0,17.53282 0,17.53282z" fill="#ff0000"/><path d="M222.0119,197.14736v-10.19048h36v10.19048z" fill="#ff0000"/><path d="M255.4881,176.09974c0,2.60363 -2.07868,4.71429 -4.64286,4.71429c-2.56418,0 -4.64286,-2.11066 -4.64286,-4.71429c0,-2.60363 2.07868,-4.71429 4.64286,-4.71429c2.56418,0 4.64286,2.11066 4.64286,4.71429z" fill="#ffffff"/><path d="M251.34524,176.31403c0,-0.67063 0.54365,-1.21429 1.21429,-1.21429c0.67063,0 1.21429,0.54365 1.21429,1.21429c0,0.67063 -0.54365,1.21429 -1.21429,1.21429c-0.67063,0 -1.21429,-0.54365 -1.21429,-1.21429z" fill="#000000"/></g></g></svg>