<svg version="1.1" xmlns="http://www.w3.org/2000/svg" xmlns:xlink="http://www.w3.org/1999/xlink" width="34.73191" height="21.9636" viewBox="0,0,34.73191,21.9636"><g transform="translate(-222.63404,-169.01326)"><g data-paper-data="{&quot;isPaintingLayer&quot;:true}" fill-rule="nonzero" stroke-linecap="butt" stroke-linejoin="miter" stroke-miterlimit="10" stroke-dasharray="" stroke-dashoffset="0" style="mix-blend-mode: normal"><path d="M225.42642,185.10839h-2.79237v-0.9045h1.45499v-1.21899h-1.45499v-1.02293h1.45499v-1.2186h-1.45499v-1.76944h2.79237v6.13446" data-paper-data="{&quot;index&quot;:null}" fill="#b38a00" stroke="none" stroke-width="0.85737"/><path d="M248.83573,176.37052c-0.94261,0 -1.70672,0.76411 -1.70672,1.70672c0,0.94187 0.76411,1.70598 1.70672,1.70598c0.94261,0 1.70672,-0.76411 1.70672,-1.70598c0,-0.94261 -0.76411,-1.70672 -1.70672,-1.70672v0zM254.18404,176.37052c-0.94261,0 -1.70672,0.76411 -1.70672,1.70672c0,0.94187 0.76411,1.70598 1.70672,1.70598c0.94265,0 1.70672,-0.76411 1.70672,-1.70598c0,-0.94261 -0.76406,-1.70672 -1.70672,-1.70672v0zM246.05233,174.20556c0,0.4433 0.10005,0.86272 0.2786,1.23689c0.6543,-0.63709 1.54873,-1.03038 2.53542,-1.03038c1.03225,0 1.96367,0.42988 2.62467,1.12042c0.20651,-0.39699 0.32342,-0.84813 0.32342,-1.32806c0,-1.59129 -1.28995,-2.88049 -2.88088,-2.88049c-1.59168,0.00074 -2.88123,1.2903 -2.88123,2.88163v0zM246.28833,180.61082c-0.15198,0.35065 -0.23639,0.73793 -0.23639,1.14464c0,1.59133 1.28995,2.88128 2.88088,2.88128c1.59094,0 2.88088,-1.28995 2.88088,-2.88128c0,-0.47579 -0.11504,-0.92357 -0.27411,-1.24547c-0.66401,0.72077 -1.61598,1.17304 -2.67398,1.17304c-1.00725,0 -1.91924,-0.41006 -2.57728,-1.0722v0zM245.37225,179.3765c-0.22485,-0.71741 -0.30365,-1.91697 0,-2.72063l-1.40425,1.34592l1.40425,1.37471v0zM253.1929,181.78534c0,2.36924 -1.92072,4.28996 -4.28996,4.28996c-2.36924,0 -4.28996,-1.92072 -4.28996,-4.28996c0,-0.83916 -1.66786,-2.92941 -2.4936,-3.91275c0.86534,-0.70809 2.4936,-2.79277 2.4936,-3.6375c0,-2.36924 1.92072,-4.28962 4.28996,-4.28962c2.36924,0 4.28996,1.92111 4.28996,4.28962c0,0.2894 -0.02875,0.57249 -0.08368,0.84661c0.33575,-0.12027 0.69764,-0.186 1.07446,-0.186c1.75785,0 3.18227,1.42402 3.18227,3.18227c0,1.75751 -1.42441,3.18227 -3.18227,3.18227c-0.36711,0 -0.72003,-0.06233 -1.04868,-0.17663c0.03807,0.22742 0.05789,0.46233 0.05789,0.70173v0z" data-paper-data="{&quot;index&quot;:null}" fill="#b38a00" stroke="none" stroke-width="0.85737"/><path d="M243.79063,179.58306h-21.15659v-3.22448h21.15659v3.22448z" data-paper-data="{&quot;index&quot;:null}" fill="#b38a00" stroke="none" stroke-width="0.85737"/><path d="M243.55459,179.50461c0,0.30365 -0.2289,0.55049 -0.51125,0.55049v0c-0.28235,0 -0.51129,-0.2465 -0.51129,-0.55049v-3.06762c0,-0.304 0.22894,-0.55084 0.51129,-0.55084v0c0.28235,0 0.51125,0.2465 0.51125,0.55084v3.06762v0v0z" data-paper-data="{&quot;index&quot;:null}" fill="#b38a00" stroke="none" stroke-width="0.85737"/><path d="M242.41444,179.50461c0,0.30365 -0.22894,0.55049 -0.51129,0.55049v0c-0.28235,0 -0.51125,-0.2465 -0.51125,-0.55049v-3.06762c0,-0.304 0.2289,-0.55084 0.51125,-0.55084v0c0.28235,0 0.51129,0.2465 0.51129,0.55084v3.06762v0v0z" data-paper-data="{&quot;index&quot;:null}" fill="#b38a00" stroke="none" stroke-width="0.85737"/><path d="M229.10238,183.20113h-1.61185v-3.77532h1.61185v3.77532" data-paper-data="{&quot;index&quot;:null}" fill="#b38a00" stroke="none" stroke-width="0.85737"/><path d="M234.40591,186.87787l-6.17667,1.2003" data-paper-data="{&quot;index&quot;:null}" fill="none" stroke="none" stroke-width="0.85737"/><path d="M234.40591,186.87787l-6.17667,1.2003" data-paper-data="{&quot;index&quot;:null}" fill="none" stroke="#d9c400" stroke-width="0.38642"/><path d="M230.57867,185.34779l1.08718,5.5922" data-paper-data="{&quot;index&quot;:null}" fill="none" stroke="none" stroke-width="0.85737"/><path d="M230.57867,185.34779l1.08718,5.5922" data-paper-data="{&quot;index&quot;:null}" fill="none" stroke="#f4e400" stroke-width="0.38642"/><path d="M229.00603,186.1724l4.31235,2.90889" data-paper-data="{&quot;index&quot;:null}" fill="none" stroke="none" stroke-width="0.85737"/><path d="M229.00603,186.1724l4.31235,2.90889" data-paper-data="{&quot;index&quot;:null}" fill="none" stroke="#d9c400" stroke-width="0.32186"/><path d="M229.65475,189.50965l3.19494,-4.73326" data-paper-data="{&quot;index&quot;:null}" fill="none" stroke="none" stroke-width="0.85737"/><path d="M229.65475,189.50965l3.19494,-4.73326" data-paper-data="{&quot;index&quot;:null}" fill="none" stroke="#c19e00" stroke-width="0.32186"/><path d="M227.85094,172.44509l-4.95994,-1.23654" data-paper-data="{&quot;index&quot;:null}" fill="none" stroke="none" stroke-width="0.85737"/><path d="M227.85094,172.44509l-4.95994,-1.23654" data-paper-data="{&quot;index&quot;:null}" fill="none" stroke="#c19e00" stroke-width="0.38642"/><path d="M224.23509,174.58761l1.37881,-5.5276" data-paper-data="{&quot;index&quot;:null}" fill="none" stroke="none" stroke-width="0.85737"/><path d="M224.23509,174.58761l1.37881,-5.5276" data-paper-data="{&quot;index&quot;:null}" fill="none" stroke="#f4e400" stroke-width="0.38642"/><path d="M224.07597,170.23828l2.31811,3.85934" data-paper-data="{&quot;index&quot;:null}" fill="none" stroke="none" stroke-width="0.85737"/><path d="M224.07597,170.23828l2.31811,3.85934" data-paper-data="{&quot;index&quot;:null}" fill="none" stroke="#d9c400" stroke-width="0.32186"/><path d="M222.89287,172.93731l4.89682,-2.93951" data-paper-data="{&quot;index&quot;:null}" fill="none" stroke="none" stroke-width="0.85737"/><path d="M222.89287,172.93731l4.89682,-2.93951" data-paper-data="{&quot;index&quot;:null}" fill="none" stroke="#d9c400" stroke-width="0.32186"/><path d="M239.37182,172.83721l2.75539,0.68753" data-paper-data="{&quot;index&quot;:null}" fill="none" stroke="none" stroke-width="0.85737"/><path d="M239.37182,172.83721l2.75539,0.68753" data-paper-data="{&quot;index&quot;:null}" fill="none" stroke="#d9c400" stroke-width="0.2146"/><path d="M241.22158,171.72877l-0.76485,3.06984" data-paper-data="{&quot;index&quot;:null}" fill="none" stroke="none" stroke-width="0.85737"/><path d="M241.22158,171.72877l-0.76485,3.06984" data-paper-data="{&quot;index&quot;:null}" fill="none" stroke="#f4e400" stroke-width="0.2146"/><path d="M240.36822,172.38381l1.28768,2.14296" data-paper-data="{&quot;index&quot;:null}" fill="none" stroke="none" stroke-width="0.85737"/><path d="M240.36822,172.38381l1.28768,2.14296" data-paper-data="{&quot;index&quot;:null}" fill="none" stroke="#c19e00" stroke-width="0.17876"/><path d="M242.43047,172.24973l-2.71915,1.6328" data-paper-data="{&quot;index&quot;:null}" fill="none" stroke="none" stroke-width="0.85737"/><path d="M242.43047,172.24973l-2.71915,1.6328" data-paper-data="{&quot;index&quot;:null}" fill="none" stroke="#d9c400" stroke-width="0.17876"/></g></g></svg>