<svg version="1.1" xmlns="http://www.w3.org/2000/svg" xmlns:xlink="http://www.w3.org/1999/xlink" width="74.3" height="125" viewBox="0,0,74.3,125"><g transform="translate(-206,-151.5)"><g data-paper-data="{&quot;isPaintingLayer&quot;:true}" fill-rule="nonzero" stroke-linecap="butt" stroke-linejoin="miter" stroke-miterlimit="10" stroke-dasharray="" stroke-dashoffset="0" style="mix-blend-mode: normal"><path d="M207.5,275v-122h36v122z" fill="#4d86ff" stroke="#000000" stroke-width="3"/><path d="M280.3,201c0,-0.11046 -0.17909,-0.2 -0.4,-0.2c-0.22091,0 -0.4,0.08954 -0.4,0.2c0,0.11046 0.17909,0.2 0.4,0.2c0.22091,0 0.4,-0.08954 0.4,-0.2z" fill="#000000" stroke="none" stroke-width="0"/><path d="M232.7,223.025c0,4.21117 -3.13401,7.625 -7,7.625c-3.86599,0 -7,-3.41383 -7,-7.625c0,-4.21117 3.13401,-7.625 7,-7.625c3.86599,0 7,3.41383 7,7.625z" fill="#000000" stroke="none" stroke-width="0"/><path d="M221.5,240c-0.70347,-1.65164 1.8,-10.6 1.8,-10.6h4.6l2,10.8c0,0 -7.69653,1.45164 -8.4,-0.2z" fill="#000000" stroke="none" stroke-width="0"/></g></g></svg>