<svg version="1.1" xmlns="http://www.w3.org/2000/svg" xmlns:xlink="http://www.w3.org/1999/xlink" width="208.83683" height="84.02331" viewBox="0,0,208.83683,84.02331"><g transform="translate(-135.58158,-137.98835)"><g data-paper-data="{&quot;isPaintingLayer&quot;:true}" fill-rule="nonzero" stroke="none" stroke-linecap="butt" stroke-linejoin="miter" stroke-miterlimit="10" stroke-dasharray="" stroke-dashoffset="0" style="mix-blend-mode: normal"><path d="M143.38079,144.99427c3.3098,0.2642 7.9036,-0.7546 9.7491,0.9749c-0.2506,12.6669 0.2242,22.6382 0.9749,32.1718c10.2287,-5.6944 9.9128,-21.9344 16.5734,-31.1969c4.3441,-0.12 6.0444,2.4051 9.749,2.9247c-2.9374,10.3866 -9.014,17.6331 -11.6989,28.2722c4.8989,7.7749 7.695,17.6526 12.6738,25.3475c-2.1701,2.3798 -4.4114,4.6874 -8.7741,4.8746c-3.304,-6.7707 -4.5294,-15.619 -10.724,-19.4981c-7.7953,4.2408 -6.061,13.558 -6.8243,23.3977c-3.4317,-0.2369 -6.723,2.0327 -9.7491,0.9749c-0.7955,-22.2834 -0.4621,-44.4995 -1.9498,-68.2433z" fill="#ff9400" stroke-width="0.9749"/><path d="M185.30169,203.48847c0,3.575 0,7.149 0,10.724c-7.0476,0.1024 -9.1875,5.1114 -14.6235,6.8243c-3.2075,-7.1909 -6.6528,-14.1458 -7.7993,-23.3977c-7.1373,2.3895 -3.8353,10.6323 -3.8996,17.5483c-2.4031,-0.1287 -4.6971,-0.1472 -5.8494,0.9749c-0.0215,2.2959 1.6797,2.8701 0.9749,5.8494c-5.1992,0 -10.3993,0 -15.5985,0c-3.1655,-23.3382 0.6093,-50.7048 -2.9247,-73.1178c0,-0.3247 0,-0.6503 0,-0.9749c1.281,-1.2508 3.5935,-1.2508 4.8745,0c1.0929,-3.071 0.0877,-2.2072 0,-5.8495c5.1992,0 10.3993,0 15.5985,0c0.6346,5.2148 -1.2801,12.9789 0.9749,16.5734c3.3264,-3.1723 3.1343,-9.8641 5.8494,-13.6486c5.2128,3.2074 4.4865,-0.1882 8.7742,-1.9499c3.999,2.1751 9.9762,2.372 12.6737,5.8495c-1.2557,10.5806 -12.3442,18.9638 -11.6988,29.2471c0.5742,9.1476 9.5492,16.5929 12.6737,25.3475zM145.33059,213.23757c3.0261,1.0578 6.3174,-1.2118 9.7491,-0.9749c0.7633,-9.8397 -0.971,-19.1569 6.8243,-23.3977c6.1946,3.8791 7.42,12.7274 10.724,19.4981c4.3627,-0.1872 6.604,-2.4948 8.7741,-4.8746c-4.9788,-7.6949 -7.7749,-17.5726 -12.6738,-25.3475c2.6849,-10.6391 8.7615,-17.8856 11.6989,-28.2722c-3.7046,-0.5196 -5.4049,-3.0447 -9.749,-2.9247c-6.6606,9.2625 -6.3447,25.5025 -16.5734,31.1969c-0.7507,-9.5336 -1.2255,-19.5049 -0.9749,-32.1718c-1.8455,-1.7295 -6.4393,-0.7107 -9.7491,-0.9749c1.4877,23.7438 1.1543,45.9599 1.9498,68.2433z" fill="#000000" stroke-width="0.9749"/><g stroke-width="0.83856"><path d="M340.71609,142.96237c-0.1895,4.3823 0.0143,8.3713 0.8386,11.7398c-5.0482,1.6612 -12.9256,0.4914 -19.2869,0.8386c-0.7304,14.1297 0.9954,33.2689 1.6771,52.8291c-4.0879,-2.2884 -10.0274,2.5652 -13.4169,0.8386c-0.2113,-18.6185 -0.2834,-29.8468 -0.8386,-51.1521c-5.0246,-3.4196 -10.8794,1.5539 -17.6097,-1.6771c-1.1572,-4.2297 0.0512,-10.1642 -0.8385,-12.5784c14.2848,-0.545 34.759,-1.3568 49.4749,-0.8385z" fill="#ff9400"/><path d="M288.72549,140.44667c9.2786,0.0763 13.8446,0.5207 17.6097,0c12.5708,0 25.1668,-0.2088 37.7351,0c0.7833,0.6809 0,1.6771 0,2.5157c-0.2792,0 -0.5593,0 -0.8385,0c0,5.0313 0,10.0627 0,15.094c-1.9446,-0.2675 -3.2192,0.135 -4.1928,0.8386c-0.5191,2.2758 1.065,6.6548 -0.8386,7.547c-3.7374,-0.7128 -7.9336,-0.2088 -13.4169,-0.8385c0.888,13.0479 0.3019,31.6933 3.3542,46.1207c-2.067,-0.1107 -4.0401,-0.1266 -5.0313,0.8385c-0.878,2.3723 1.3836,5.7526 0,5.8699c-5.392,0.1979 -11.9763,-0.7957 -15.0941,1.6772c-1.3979,0 -2.7949,0 -4.1928,0c-4.4133,-15.6383 0.8956,-37.5532 -2.5156,-52.8292c-4.3916,-2.4327 -9.2653,-0.9702 -15.9327,-0.8386c0.9711,-4.5198 -0.5593,-13.2744 -1.6771,-18.4483c0,-0.5593 0,-1.1178 0,-1.6771c1.3979,0 2.7949,0 4.1928,0c0.0084,-2.2272 -0.5945,-4.9131 0.8386,-5.8699zM291.24118,143.80086c0.8897,2.4142 -0.3187,8.3487 0.8385,12.5784c6.7303,3.231 12.5851,-1.7425 17.6097,1.6771c0.5552,21.3053 0.6273,32.5336 0.8386,51.1521c3.3895,1.7266 9.329,-3.127 13.4169,-0.8386c-0.6817,-19.5602 -2.4075,-38.6994 -1.6771,-52.8291c6.3613,-0.3472 14.2387,0.8226 19.2869,-0.8386c-0.8243,-3.3685 -1.0281,-7.3575 -0.8386,-11.7398c-14.7159,-0.5183 -35.1901,0.2935 -49.4749,0.8385z" fill="#000000"/></g><g stroke-width="0.93077"><path d="M232.73709,138.03976c0.6209,0 1.2408,0 1.8616,0c-0.4198,1.52 5.0727,1.52 4.6538,0c0.31,0 0.6208,0 0.9308,0c0.0251,0.9057 1.1393,0.7223 1.8615,0.9308c-0.4635,7.9813 5.391,13.3147 3.7231,19.5462c8.2494,13.4682 9.2528,34.1834 19.5462,45.6076c0,0.6209 0,1.2408 0,1.8616c-5.3036,-0.2066 -0.5166,4.8363 -2.7923,6.5154c-2.5513,3.0333 -9.9872,1.182 -12.1,4.6538c-0.9308,0 -1.8616,0 -2.7924,0c-3.7593,-9.0759 -3.1497,-17.7423 -8.3769,-26.0615c-12.8371,-2.2879 -12.8074,8.2894 -14.8923,16.7538c-2.2003,2.1436 -4.3225,4.3644 -4.6538,8.3769c-5.1463,-0.4393 -10.608,-0.5612 -14.8923,-1.8615c0,-0.6208 0,-1.2407 0,-1.8615c5.6181,-21.995 11.2018,-44.0245 15.823,-67.0154c8.9429,2.4274 4.7041,-8.3267 12.1,-7.4462zM229.01409,142.69367c-4.4715,21.5901 -10.7895,41.3336 -14.8923,63.2923c3.6002,-0.498 4.544,1.6614 8.3769,0.9308c1.2602,-8.0475 3.7286,-14.8868 4.6538,-23.2693c6.2641,0.0587 10.0803,-2.3297 15.8231,-2.7923c2.8314,8.9577 7.0953,16.4839 10.2385,25.1308c3.4513,0.659 3.9948,-1.5898 7.4461,-0.9308c-3.441,-8.8442 -8.6161,-19.2334 -9.3077,-27.9231c-6.412,-9.101 -8.1172,-22.909 -11.1692,-35.3692c-5.3808,0.5659 -8.1387,-1.9844 -11.1692,0.9308z" fill="#000000"/><path d="M234.59869,138.03976c1.5516,0 3.1022,0 4.6538,0c0.4189,1.52 -5.0736,1.52 -4.6538,0z" fill="none"/><path d="M240.18329,138.03976c8.3769,0 16.7538,0 25.1308,0c0,22.0285 0,44.0561 0,66.0846c-10.2934,-11.4242 -11.2968,-32.1394 -19.5462,-45.6076c1.6679,-6.2315 -4.1866,-11.5649 -3.7231,-19.5462c-0.7222,-0.2085 -1.8364,-0.0251 -1.8615,-0.9308z" fill="none"/><path d="M240.18329,141.76287c3.052,12.4602 4.7572,26.2682 11.1692,35.3692c0.6916,8.6897 5.8667,19.0789 9.3077,27.9231c-3.4513,-0.659 -3.9948,1.5898 -7.4461,0.9308c-3.1432,-8.6469 -7.4071,-16.1731 -10.2385,-25.1308c-5.7428,0.4626 -9.559,2.851 -15.8231,2.7923c-0.9252,8.3825 -3.3936,15.2218 -4.6538,23.2693c-3.8329,0.7306 -4.7767,-1.4288 -8.3769,-0.9308c4.1028,-21.9587 10.4208,-41.7022 14.8923,-63.2923c3.0305,-2.9152 5.7884,-0.3649 11.1692,-0.9308zM229.94479,178.06287c5.2626,-1.3794 8.2076,-1.923 13.0308,-0.9308c-1.1281,-8.8004 -4.9163,-14.9397 -6.5154,-23.2692c-0.2057,-0.7251 -0.78,-1.0825 -1.8615,-0.9308c-2.7551,6.6476 -4.9247,18.5251 -4.6539,25.1308z" fill="#ff9400"/><path d="M234.59869,152.93207c1.0815,-0.1517 1.6558,0.2057 1.8615,0.9308c1.5991,8.3295 5.3873,14.4688 6.5154,23.2692c-4.8232,-0.9922 -7.7682,-0.4486 -13.0308,0.9308c-0.2708,-6.6057 1.8988,-18.4832 4.6539,-25.1308zM234.59869,173.40907c0.1489,-2.9413 0.0326,-5.6172 -1.8616,-6.5154c0.6786,2.1138 -1.6772,7.2618 1.8616,6.5154z" fill="#000000"/><path d="M232.73709,166.89367c1.8942,0.8982 2.0105,3.5741 1.8616,6.5154c-3.5388,0.7464 -1.183,-4.4016 -1.8616,-6.5154z" fill="none"/><path d="M247.62939,217.15517c-13.9634,-0.618 -30.4026,1.2379 -42.8153,-0.9308c0,-0.6208 0,-1.2407 0,-1.8615c4.2843,1.3003 9.746,1.4222 14.8923,1.8615c0.3313,-4.0125 2.4535,-6.2333 4.6538,-8.3769c2.0849,-8.4644 2.0552,-19.0417 14.8923,-16.7538c5.2272,8.3192 4.6176,16.9856 8.3769,26.0615z" fill="none"/><path d="M265.31408,205.98597c0,3.7231 0,7.4461 0,11.1692c-4.9638,0 -9.9286,0 -14.8923,0c2.1128,-3.4718 9.5487,-1.6205 12.1,-4.6538c2.2757,-1.6791 -2.5113,-6.722 2.7923,-6.5154z" fill="none"/></g></g></g></svg>